<?xml version="1.0" encoding="UTF-8"?>
<svg width="262px" height="262px" viewBox="0 0 262 262" version="1.1" xmlns="http://www.w3.org/2000/svg" xmlns:xlink="http://www.w3.org/1999/xlink">
    <!-- Generator: Sketch 46.2 (44496) - http://www.bohemiancoding.com/sketch -->
    <title>Artboard</title>
    <desc>Created with Sketch.</desc>
    <defs></defs>
    <g id="Page-1" stroke="none" stroke-width="1" fill="none" fill-rule="evenodd">
        <g id="Artboard" fill-rule="nonzero" fill="#7B7B7B">
            <path d="M130.5,11 C64.775,11 11,64.775 11,130.5 C11,196.225 64.775,250 130.5,250 C196.225,250 250,196.225 250,130.5 C250,64.775 196.225,11 130.5,11 Z M130.5,236.722222 C72.0777778,236.722222 24.2777778,188.922222 24.2777778,130.5 C24.2777778,72.0777778 72.0777778,24.2777778 130.5,24.2777778 C188.922222,24.2777778 236.722222,72.0777778 236.722222,130.5 C236.722222,188.922222 188.922222,236.722222 130.5,236.722222 Z" id="Shape"></path>
            <circle id="Oval" cx="167" cy="104" r="16"></circle>
            <circle id="Oval" cx="93" cy="104" r="16"></circle>
            <path d="M165.2,190 C160.3424,190 156.4,186.0515 156.4,181.166667 C156.4,166.556333 144.5552,154.666667 130,154.666667 C115.4448,154.666667 103.6,166.556333 103.6,181.166667 C103.6,186.0515 99.6576,190 94.8,190 C89.9424,190 86,186.0515 86,181.166667 C86,156.813167 105.7384,137 130,137 C154.2616,137 174,156.813167 174,181.166667 C174,186.0515 170.0576,190 165.2,190 Z" id="Shape"></path>
        </g>
    </g>
</svg>