<svg id="Layer_1" data-name="Layer 1" xmlns="http://www.w3.org/2000/svg" xmlns:xlink="http://www.w3.org/1999/xlink" viewBox="0 0 105 264.73"><defs><style>.cls-1,.cls-3{fill:none;}.cls-2{clip-path:url(#clip-path);}.cls-3{stroke:#7f7f7f;stroke-linecap:round;stroke-miterlimit:10;stroke-width:6px;}</style><clipPath id="clip-path"><rect class="cls-1" x="8.58" width="82.21" height="264.73"/></clipPath></defs><title>Artboard 1</title><g class="cls-2"><path d="M88.13,58.48c2.87-6.65,3.55-11.95,2-15.75a7.38,7.38,0,0,0-3.52-4L64.22,28.06c-.42-1.65-1.15-4.56-1.74-7.31a7.38,7.38,0,0,0-4.61-5.13L55.93,8.15c-.35-1.34-3.11-2.28-3.11-2.28V3.05a3.05,3.05,0,1,0-6.1,0V5.86S44,6.8,43.61,8.14l-2,7.49a7.39,7.39,0,0,0-4.6,5.13c-.59,2.75-1.32,5.65-1.74,7.31L12.89,38.7a7.35,7.35,0,0,0-3.52,4c-1.53,3.8-.85,9.1,2,15.75,5.51,12.76,12.84,37.77,13.23,39.11a25.87,25.87,0,0,1-4.68,20.21c-9.23,12.73-2,43.59-2,43.64.7,2.58,5,8.44,28.77,8.9v65.11a19.7,19.7,0,0,0-11.09,4.43c-4.15,3.55-6.41,8.86-6.74,15.78a2.1,2.1,0,1,1-4.2.15,3.05,3.05,0,0,0-6.1,0,8.21,8.21,0,0,0,8.21,8.2c8,0,8.2-8,8.2-8.06.24-5.14,1.79-9,4.58-11.39a13.37,13.37,0,0,1,7.16-3v19.36a3.05,3.05,0,0,0,6.1,0V241.58a13.4,13.4,0,0,1,7.12,2.93c2.82,2.41,4.37,6.26,4.62,11.43,0,0,0,8.06,8.2,8.06a8.21,8.21,0,0,0,8.2-8.2,3.05,3.05,0,0,0-6.1,0,2.1,2.1,0,0,1-2.1,2.1c-2,0-2.1-2.22-2.1-2.24-.33-6.92-2.6-12.22-6.74-15.78a19.7,19.7,0,0,0-11.09-4.43V170.33c23.82-.46,28.07-6.32,28.77-8.9,0,0,0-.09,0-.13.72-3.19,6.74-31.49-2-43.5a25.7,25.7,0,0,1-4.69-20.2c.37-1.28,7.71-26.33,13.23-39.11ZM48.92,12h1.69l.57,2.17c-.62,0-2.2,0-2.82,0ZM74.66,121.38c5.95,8.15,2.89,29.87,1.1,38.14-.68.75-5.27,4.74-26,4.74s-25.32-4-26-4.74c-1.79-8.27-4.85-30,1.1-38.14A31.85,31.85,0,0,0,30.53,96S22.79,69.45,17,56.06C13.52,48,14.76,44.78,15.57,44.19L39.22,33a3,3,0,0,0,1.64-2c.05-.19,1.25-4.69,2.16-9,.17-.79,3.47-1.83,6.74-1.84s6.57,1,6.74,1.84c.92,4.28,2.11,8.77,2.16,9a3.06,3.06,0,0,0,1.64,2L84,44.19c.81.6,2.05,3.8-1.44,11.87C76.75,69.45,69,96,69,96a31.83,31.83,0,0,0,5.65,25.38Zm0,0"/></g><path class="cls-3" d="M4.58,58.88S23,71.83,49.76,71.83A95,95,0,0,0,96.64,58.88"/><polyline class="cls-3" points="84.41 53.8 100 57.24 94.55 71.83"/><path class="cls-3" d="M14.57,96.92a67.15,67.15,0,0,0,35.71,10.24A75.1,75.1,0,0,0,87.35,96.92"/><polyline class="cls-3" points="77.68 92.9 90.01 95.62 85.7 107.16"/><path class="cls-3" d="M4.58,125.15S23,138.1,49.76,138.1a95,95,0,0,0,46.88-12.95"/><polyline class="cls-3" points="84.41 120.07 100 123.52 94.55 138.1"/></svg>